<svg width="132" height="21" viewBox="0 0 132 21" fill="none" xmlns="http://www.w3.org/2000/svg">
<path opacity="0.5" d="M25 5.59721L18.75 9.20832L12.5 5.59721L18.75 2L25 5.59721Z" fill="white"/>
<path d="M18.75 9.20703V16.4293L12.5 20.0404V12.8181L18.75 9.20703Z" fill="white"/>
<path d="M6.25 9.20703V16.4293L12.5 20.0404V12.8181L6.25 9.20703Z" fill="white"/>
<path d="M0 5.59766V12.8199L6.25 16.431V9.20877L0 5.59766Z" fill="white"/>
<path d="M25 5.59766V12.8199L18.75 16.431V9.20877L25 5.59766Z" fill="white"/>
<path d="M52.0644 1.15547V1.10147H55.0614V20.0015H52.0644V6.52847L46.4214 16.0055H45.6654L40.0224 6.47447V20.0285H37.0254V1.10147H40.0224V1.15547L40.1304 1.10147L46.0434 11.0645L51.9564 1.10147L52.0644 1.15547Z" fill="white"/>
<path d="M65.1961 6.15047C66.5101 6.15047 67.6801 6.47447 68.7061 7.12247C69.7321 7.75247 70.5331 8.61647 71.1091 9.71447C71.6851 10.7945 71.9731 11.9825 71.9731 13.2785C71.9731 13.4945 71.9371 13.8365 71.8651 14.3045H60.9571C61.1911 15.3845 61.6951 16.2485 62.4691 16.8965C63.2611 17.5445 64.2601 17.8685 65.4661 17.8685C66.2041 17.8685 66.9061 17.7065 67.5721 17.3825C68.2561 17.0585 68.7601 16.6355 69.0841 16.1135L71.2981 17.4095C70.6861 18.3455 69.8761 19.0745 68.8681 19.5965C67.8601 20.1005 66.7081 20.3525 65.4121 20.3525C63.9721 20.3525 62.6941 20.0465 61.5781 19.4345C60.4801 18.8225 59.6251 17.9765 59.0131 16.8965C58.4191 15.8165 58.1221 14.6015 58.1221 13.2515C58.1221 11.9195 58.4191 10.7135 59.0131 9.63347C59.6251 8.55347 60.4621 7.70747 61.5241 7.09547C62.6041 6.46547 63.8281 6.15047 65.1961 6.15047ZM69.2731 12.0635C69.1291 11.0015 68.6881 10.1645 67.9501 9.55247C67.2301 8.94047 66.3121 8.63447 65.1961 8.63447C64.4221 8.63447 63.7111 8.79647 63.0631 9.12047C62.4151 9.42647 61.9021 9.84947 61.5241 10.3895C61.1461 10.9115 60.9481 11.4695 60.9301 12.0635H69.2731Z" fill="white"/>
<path d="M77.0601 16.6535C77.0601 16.9595 77.1231 17.1755 77.2491 17.3015C77.3931 17.4095 77.6181 17.4635 77.9241 17.4635C78.1581 17.4635 78.4371 17.4365 78.7611 17.3825V20.0015C77.9691 20.1095 77.4111 20.1635 77.0871 20.1635C76.1691 20.1635 75.4581 19.9205 74.9541 19.4345C74.4681 18.9485 74.2251 18.0845 74.2251 16.8425V1.10147H77.0601V16.6535Z" fill="white"/>
<path d="M82.8279 3.82847C82.2879 3.82847 81.8559 3.68447 81.5319 3.39647C81.2259 3.09047 81.0729 2.67647 81.0729 2.15447C81.0729 1.63247 81.2259 1.22747 81.5319 0.939469C81.8559 0.633469 82.2879 0.480469 82.8279 0.480469C83.3679 0.480469 83.7909 0.633469 84.0969 0.939469C84.4209 1.22747 84.5829 1.63247 84.5829 2.15447C84.5829 2.67647 84.4209 3.09047 84.0969 3.39647C83.7909 3.68447 83.3679 3.82847 82.8279 3.82847ZM81.3969 20.0015V6.50147H84.2319V20.0015H81.3969Z" fill="white"/>
<path d="M94.3394 6.15047C95.1314 6.15047 95.9324 6.32147 96.7424 6.66347C97.5704 6.98747 98.2814 7.58147 98.8754 8.44547C99.4694 9.30947 99.7664 10.4705 99.7664 11.9285V20.0015H96.9314V11.9285C96.9314 10.7765 96.6074 9.94847 95.9594 9.44447C95.3114 8.92247 94.5554 8.66147 93.6914 8.66147C92.8454 8.66147 92.1164 8.95847 91.5044 9.55247C90.8924 10.1465 90.5864 11.1095 90.5864 12.4415V20.0015H87.7514V6.50147H90.5864V7.85147C91.0724 7.34747 91.6304 6.94247 92.2604 6.63647C92.9084 6.31247 93.6014 6.15047 94.3394 6.15047Z" fill="white"/>
<path d="M109.387 20.3525C108.109 20.3525 106.922 20.0375 105.824 19.4075C104.744 18.7595 103.888 17.8955 103.258 16.8155C102.628 15.7175 102.313 14.5295 102.313 13.2515C102.313 11.9735 102.628 10.7945 103.258 9.71447C103.888 8.63447 104.744 7.77947 105.824 7.14947C106.922 6.50147 108.109 6.17747 109.387 6.17747C110.665 6.17747 111.844 6.50147 112.924 7.14947C114.022 7.77947 114.887 8.63447 115.517 9.71447C116.147 10.7945 116.462 11.9735 116.462 13.2515C116.462 14.5295 116.147 15.7175 115.517 16.8155C114.887 17.8955 114.022 18.7595 112.924 19.4075C111.844 20.0375 110.665 20.3525 109.387 20.3525ZM109.387 17.5175C110.161 17.5175 110.873 17.3285 111.521 16.9505C112.169 16.5545 112.682 16.0325 113.06 15.3845C113.438 14.7365 113.627 14.0255 113.627 13.2515C113.627 12.4775 113.438 11.7665 113.06 11.1185C112.682 10.4705 112.169 9.95747 111.521 9.57947C110.873 9.20147 110.161 9.01247 109.387 9.01247C108.613 9.01247 107.903 9.20147 107.255 9.57947C106.607 9.95747 106.084 10.4705 105.688 11.1185C105.31 11.7665 105.121 12.4775 105.121 13.2515C105.121 14.0255 105.31 14.7365 105.688 15.3845C106.084 16.0325 106.607 16.5545 107.255 16.9505C107.903 17.3285 108.613 17.5175 109.387 17.5175Z" fill="white"/>
<path d="M125.05 6.15047C126.364 6.15047 127.534 6.47447 128.56 7.12247C129.586 7.75247 130.387 8.61647 130.963 9.71447C131.539 10.7945 131.827 11.9825 131.827 13.2785C131.827 13.4945 131.791 13.8365 131.719 14.3045H120.811C121.045 15.3845 121.549 16.2485 122.323 16.8965C123.115 17.5445 124.114 17.8685 125.32 17.8685C126.058 17.8685 126.76 17.7065 127.426 17.3825C128.11 17.0585 128.614 16.6355 128.938 16.1135L131.152 17.4095C130.54 18.3455 129.73 19.0745 128.722 19.5965C127.714 20.1005 126.562 20.3525 125.266 20.3525C123.826 20.3525 122.548 20.0465 121.432 19.4345C120.334 18.8225 119.479 17.9765 118.867 16.8965C118.273 15.8165 117.976 14.6015 117.976 13.2515C117.976 11.9195 118.273 10.7135 118.867 9.63347C119.479 8.55347 120.316 7.70747 121.378 7.09547C122.458 6.46547 123.682 6.15047 125.05 6.15047ZM129.127 12.0635C128.983 11.0015 128.542 10.1645 127.804 9.55247C127.084 8.94047 126.166 8.63447 125.05 8.63447C124.276 8.63447 123.565 8.79647 122.917 9.12047C122.269 9.42647 121.756 9.84947 121.378 10.3895C121 10.9115 120.802 11.4695 120.784 12.0635H129.127Z" fill="white"/>
</svg>
