<svg width="26" height="26" viewBox="0 0 26 26" fill="none" xmlns="http://www.w3.org/2000/svg">
<g clip-path="url(#clip0_1605_716)">
<path d="M9.36029 5.66624C8.89445 5.27624 8.21195 5.34124 7.83279 5.79624C7.82195 5.79624 7.82195 5.79624 7.82195 5.79624L2.40529 12.2962H2.39445C2.05862 12.6862 2.05862 13.2712 2.39445 13.6721L7.62695 20.1721L7.61612 20.1612C7.82195 20.4104 8.12529 20.5621 8.45029 20.5621C9.04612 20.5621 9.53362 20.0746 9.53362 19.4787C9.53362 19.2187 9.44695 18.9804 9.28445 18.7854L4.59362 12.9679L9.44695 7.16124V7.1504C9.82612 6.68457 9.76112 6.00207 9.30612 5.6229C9.29529 5.61207 9.29529 5.61207 9.29529 5.61207L9.36029 5.66624Z" fill="#FBFF30"/>
<path d="M23.5954 12.3161L18.417 5.81609C18.0379 5.33942 17.3554 5.27442 16.8895 5.64275C16.8787 5.64275 16.8787 5.64275 16.8787 5.64275V5.63192C16.402 6.00025 16.337 6.68275 16.7054 7.14859L21.3312 12.9661L16.4779 18.7836H16.467C16.077 19.2386 16.142 19.9211 16.597 20.3003L16.5862 20.2894C16.7812 20.4411 17.0195 20.5278 17.2687 20.5169L17.2579 20.5158C17.572 20.5158 17.8754 20.3642 18.092 20.1258L23.5087 13.6258V13.615C23.8337 13.2142 23.8445 12.64 23.5087 12.2392L23.5954 12.3161Z" fill="#FBFF30"/>
</g>
<defs>
<clipPath id="clip0_1605_716">
<rect width="26" height="26" fill="white"/>
</clipPath>
</defs>
</svg>
