<svg width="26" height="26" viewBox="0 0 26 26" fill="none" xmlns="http://www.w3.org/2000/svg">
<g clip-path="url(#clip0_1605_721)">
<path d="M13.0004 2.1662H12.9896C6.99875 2.1662 2.15625 7.0087 2.15625 12.9995C2.15625 18.9795 6.99875 23.8329 12.9896 23.822C18.9696 23.8112 23.8229 18.9687 23.8121 12.9779C23.8121 6.98703 18.9587 2.14453 12.9787 2.14453L13.0004 2.1662ZM13.0004 21.6662L12.9896 21.6651C8.20125 21.6543 4.32292 17.7759 4.32292 12.9876C4.32292 8.19928 8.20125 4.32095 12.9896 4.32095C17.7671 4.32095 21.6562 8.19928 21.6454 12.9876C21.6454 17.7651 17.7562 21.6543 12.9787 21.6543H12.9777L13.0004 21.6662Z" fill="#FBFF30"/>
<path d="M16.9871 9.01176L16.9763 9.00092C16.6621 8.66509 16.1963 8.55676 15.7846 8.73009L11.2238 10.5718V10.5609C10.9421 10.6693 10.7363 10.8751 10.6171 11.1459L8.72127 15.7609H8.71044C8.56961 16.1293 8.64544 16.5409 8.90544 16.8443H8.95961L8.94877 16.8334C9.12211 17.0826 9.39294 17.2451 9.69627 17.2884C9.83711 17.2884 9.96711 17.2559 10.1079 17.2018L14.6688 15.3601H14.6579C14.9288 15.2409 15.1346 15.0351 15.2538 14.7643L17.1496 10.1493H17.1485C17.3219 9.73759 17.2244 9.26092 16.921 8.95759L16.9871 9.01176ZM11.7004 14.3093L12.4696 12.4243L14.3004 11.6876L13.5313 13.5726L11.7004 14.3093Z" fill="#FBFF30"/>
</g>
<defs>
<clipPath id="clip0_1605_721">
<rect width="26" height="26" fill="white"/>
</clipPath>
</defs>
</svg>
