<svg width="26" height="26" viewBox="0 0 26 26" fill="none" xmlns="http://www.w3.org/2000/svg">
<g clip-path="url(#clip0_1605_708)">
<path d="M21.1679 5.50488C18.9687 3.31655 15.9895 2.11405 12.902 2.15738C6.9112 2.13572 2.04704 6.97821 2.03621 12.9582C2.01454 18.9382 6.85704 23.8024 12.837 23.8132C14.1045 23.824 15.2312 22.9899 15.567 21.7549V21.744C15.7729 20.8665 15.5454 19.9349 14.9387 19.274L14.9279 19.2632C14.722 19.0357 14.7437 18.689 14.9712 18.494C15.0579 18.4074 15.1879 18.3532 15.3179 18.3532H17.1054L17.0945 18.3424C20.5829 18.3532 23.4862 15.6774 23.7679 12.1999H23.757C23.8329 9.66488 22.8687 7.21655 21.092 5.41821L21.1679 5.50488ZM17.2029 16.2515H15.4154C13.9204 16.2407 12.707 17.4432 12.6962 18.9274C12.6854 19.5882 12.9345 20.2382 13.3787 20.7365C13.5087 20.8665 13.5629 21.0724 13.4979 21.2674C13.4437 21.4949 13.1945 21.6357 12.8587 21.6574C8.07037 21.5924 4.23537 17.6599 4.30037 12.8715C4.30037 12.5032 4.32204 12.1349 4.37621 11.7774H4.36537C4.99371 7.54155 8.59037 4.38905 12.8587 4.30238H12.9454V4.29155C15.4154 4.25905 17.7987 5.22321 19.5429 6.97821C20.9079 8.34321 21.6445 10.2065 21.5904 12.1349V12.124C21.352 14.4099 19.4237 16.1649 17.127 16.1865L17.2029 16.2515Z" fill="#FBFF30"/>
<path d="M13 5.41797C12.569 5.41797 12.1557 5.58917 11.851 5.89392C11.5462 6.19867 11.375 6.61199 11.375 7.04297C11.375 7.47395 11.5462 7.88727 11.851 8.19202C12.1557 8.49677 12.569 8.66797 13 8.66797C13.431 8.66797 13.8443 8.49677 14.149 8.19202C14.4538 7.88727 14.625 7.47395 14.625 7.04297C14.625 6.61199 14.4538 6.19867 14.149 5.89392C13.8443 5.58917 13.431 5.41797 13 5.41797Z" fill="#FBFF30"/>
<path d="M16.5211 7.79987H16.5103C15.7303 8.24403 15.4595 9.2407 15.9145 10.0099C16.3586 10.779 17.3553 11.0499 18.1245 10.5949C18.8936 10.1399 19.1645 9.1432 18.7095 8.37403L18.6986 8.3632C18.2436 7.5832 17.247 7.31237 16.4778 7.75653C16.467 7.75653 16.467 7.75653 16.467 7.75653L16.5211 7.79987Z" fill="#FBFF30"/>
<path d="M9.47905 7.79923C8.69905 7.34423 7.70238 7.61507 7.25822 8.39507C6.80322 9.16423 7.07405 10.1609 7.85405 10.6051C8.62322 11.0492 9.61988 10.7784 10.064 10.0092V9.9984C10.5082 9.2184 10.2374 8.22173 9.46822 7.77757C9.45738 7.76673 9.45738 7.76673 9.45738 7.76673L9.47905 7.79923Z" fill="#FBFF30"/>
<path d="M6.67285 12.1978V12.187C5.92535 12.6853 5.73035 13.6928 6.22868 14.4403C6.72701 15.177 7.73451 15.372 8.48201 14.8736C9.21868 14.3645 9.41368 13.357 8.91535 12.6095C8.90451 12.5986 8.90451 12.5986 8.90451 12.5986C8.40618 11.8511 7.39868 11.6561 6.66201 12.1545C6.65118 12.1545 6.65118 12.1545 6.64035 12.1545L6.67285 12.1978Z" fill="#FBFF30"/>
</g>
<defs>
<clipPath id="clip0_1605_708">
<rect width="26" height="26" fill="white"/>
</clipPath>
</defs>
</svg>
